<svg width="48" height="36" viewBox="0 0 48 36" fill="none" xmlns="http://www.w3.org/2000/svg">
<path d="M26.9553 7.41969L27.8093 6.18653L26.9553 7.41969ZM35.7093 35.4757C36.3168 36.0389 37.2659 36.0029 37.8291 35.3953L47.0066 25.4947C47.5698 24.8871 47.5338 23.938 46.9262 23.3749C46.3187 22.8117 45.3696 22.8477 44.8064 23.4552L36.6487 32.2558L27.8481 24.098C27.2405 23.5349 26.2914 23.5708 25.7283 24.1784C25.1651 24.7859 25.2011 25.735 25.8086 26.2982L35.7093 35.4757ZM0.51123 2.37744C0.576417 3.87602 0.576234 3.87603 0.57612 3.87604C0.576174 3.87604 0.576128 3.87604 0.576234 3.87603C0.576446 3.87602 0.576931 3.876 0.577686 3.87597C0.579197 3.87591 0.581791 3.8758 0.585454 3.87565C0.592782 3.87535 0.604389 3.87489 0.62017 3.87429C0.651733 3.87309 0.699987 3.87134 0.764089 3.86928C0.892304 3.86515 1.08386 3.85973 1.33204 3.85483C1.82851 3.84502 2.55091 3.83727 3.44554 3.84587C5.23656 3.86308 7.70886 3.94576 10.4352 4.20678C15.9745 4.7371 22.2389 5.9781 26.1013 8.65286L27.8093 6.18653C23.2581 3.03474 16.3005 1.7546 10.7211 1.22044C7.88817 0.949212 5.32699 0.863811 3.47437 0.846003C2.54718 0.837092 1.79522 0.845092 1.27278 0.855414C1.0115 0.860576 0.807474 0.866322 0.667462 0.870834C0.597451 0.87309 0.543432 0.875038 0.50625 0.876452C0.487659 0.877158 0.473276 0.877731 0.463207 0.878142C0.458172 0.878347 0.454216 0.878511 0.451351 0.878633C0.449918 0.878693 0.448759 0.878742 0.447874 0.87878C0.447432 0.878799 0.446974 0.878818 0.446752 0.878828C0.446364 0.878845 0.446044 0.878858 0.51123 2.37744ZM26.1013 8.65286C28.0482 10.0011 29.6399 12.2048 30.919 14.9005C32.1916 17.5823 33.1023 20.6395 33.7481 23.5561C34.3924 26.4661 34.7639 29.1933 34.974 31.1956C35.0789 32.1953 35.1431 33.0107 35.1811 33.5736C35.2001 33.8549 35.2124 34.0729 35.22 34.2189C35.2238 34.2919 35.2264 34.347 35.228 34.3829C35.2288 34.4009 35.2293 34.4141 35.2297 34.4224C35.2299 34.4265 35.23 34.4295 35.23 34.4311C35.2301 34.432 35.2301 34.4325 35.2301 34.4327C35.2301 34.4328 35.2301 34.4328 35.2301 34.4328C35.2301 34.4327 35.2301 34.4324 36.729 34.3756C38.2279 34.3188 38.2279 34.3184 38.2279 34.3179C38.2279 34.3177 38.2279 34.3171 38.2278 34.3166C38.2278 34.3156 38.2278 34.3142 38.2277 34.3125C38.2276 34.3092 38.2274 34.3046 38.2271 34.2987C38.2267 34.2871 38.2259 34.2704 38.225 34.249C38.2231 34.2061 38.2201 34.144 38.216 34.0636C38.2076 33.9029 38.1944 33.6694 38.1743 33.3717C38.1342 32.7765 38.0668 31.9237 37.9576 30.8825C37.7394 28.8031 37.3527 25.9584 36.6771 22.9075C36.003 19.8631 35.032 16.5703 33.6294 13.6144C32.2333 10.6723 30.3563 7.95041 27.8093 6.18653L26.1013 8.65286Z" fill="#C776AF"/>
</svg>
