<svg width="15" height="15" viewBox="0 0 15 15" fill="none" xmlns="http://www.w3.org/2000/svg">
<g clip-path="url(#clip0_405_1577)">
<path d="M11.8546 9.29201C11.5475 8.97226 11.1771 8.8013 10.7845 8.8013C10.3951 8.8013 10.0215 8.96909 9.70178 9.28884L8.70137 10.2861C8.61906 10.2418 8.53675 10.2006 8.4576 10.1595C8.34363 10.1025 8.23599 10.0486 8.14418 9.99166C7.20709 9.39648 6.35547 8.62085 5.53868 7.61727C5.14295 7.11707 4.87702 6.69601 4.6839 6.26862C4.9435 6.03118 5.18411 5.78424 5.41838 5.5468C5.50703 5.45816 5.59567 5.36635 5.68431 5.27771C6.34914 4.61288 6.34914 3.75177 5.68431 3.08694L4.82004 2.22266C4.72189 2.12452 4.62059 2.02321 4.52561 1.9219C4.33566 1.72562 4.13621 1.52301 3.93043 1.33306C3.62334 1.02913 3.2561 0.867676 2.86987 0.867676C2.48364 0.867676 2.11007 1.02913 1.79348 1.33306C1.79032 1.33622 1.79032 1.33622 1.78715 1.33939L0.710759 2.42528C0.30553 2.8305 0.0744228 3.32438 0.0237692 3.8974C-0.0522113 4.82183 0.220052 5.68294 0.428998 6.24646C0.941866 7.62994 1.708 8.91211 2.85088 10.2861C4.23752 11.9418 5.90592 13.2493 7.81177 14.1706C8.53991 14.5157 9.51183 14.9241 10.5977 14.9937C10.6642 14.9969 10.7338 15 10.7972 15C11.5285 15 12.1427 14.7373 12.6239 14.2149C12.627 14.2086 12.6334 14.2054 12.6365 14.1991C12.8012 13.9996 12.9911 13.8192 13.1906 13.6261C13.3267 13.4963 13.466 13.3601 13.6021 13.2177C13.9155 12.8916 14.0802 12.5117 14.0802 12.1223C14.0802 11.7297 13.9124 11.353 13.5926 11.0364L11.8546 9.29201ZM12.9879 12.6256C12.9848 12.6256 12.9848 12.6288 12.9879 12.6256C12.8645 12.7586 12.7378 12.8789 12.6017 13.0119C12.3959 13.2082 12.187 13.4139 11.9907 13.6451C11.6709 13.987 11.2942 14.1484 10.8003 14.1484C10.7528 14.1484 10.7022 14.1484 10.6547 14.1453C9.71444 14.0851 8.84067 13.7179 8.18534 13.4044C6.39347 12.537 4.82004 11.3055 3.51254 9.74472C2.43298 8.44356 1.71117 7.24054 1.23312 5.94887C0.938701 5.16057 0.831062 4.5464 0.878549 3.96704C0.910208 3.59664 1.05267 3.28955 1.31544 3.02679L2.39499 1.94723C2.55012 1.8016 2.71474 1.72246 2.8762 1.72246C3.07565 1.72246 3.23711 1.84276 3.33842 1.94407C3.34158 1.94723 3.34475 1.9504 3.34791 1.95356C3.54103 2.13402 3.72465 2.3208 3.91777 2.52025C4.01591 2.62156 4.11722 2.72287 4.21852 2.82734L5.0828 3.69162C5.41838 4.0272 5.41838 4.33745 5.0828 4.67303C4.99099 4.76484 4.90235 4.85665 4.81054 4.94529C4.54461 5.21756 4.29134 5.47082 4.01591 5.71776C4.00958 5.72409 4.00325 5.72726 4.00008 5.73359C3.72782 6.00585 3.77847 6.27178 3.83546 6.45224C3.83862 6.46174 3.84179 6.47123 3.84495 6.48073C4.06973 7.02526 4.38631 7.53813 4.86752 8.14914L4.87069 8.1523C5.74446 9.22869 6.66573 10.0676 7.68197 10.7103C7.81177 10.7926 7.94473 10.8591 8.07137 10.9224C8.18534 10.9794 8.29298 11.0332 8.38479 11.0902C8.39745 11.0965 8.41011 11.106 8.42278 11.1124C8.53042 11.1662 8.63172 11.1915 8.7362 11.1915C8.99896 11.1915 9.16359 11.0269 9.21741 10.9731L10.3001 9.89035C10.4078 9.78271 10.5787 9.65292 10.7782 9.65292C10.9745 9.65292 11.1359 9.77638 11.2341 9.88402C11.2372 9.88719 11.2372 9.88719 11.2404 9.89035L12.9848 11.6347C13.3109 11.9577 13.3109 12.2901 12.9879 12.6256Z" fill="black"/>
</g>
<defs>
<clipPath id="clip0_405_1577">
<rect width="15" height="15" fill="white"/>
</clipPath>
</defs>
</svg>
