<svg width="37" height="37" viewBox="0 0 37 37" fill="none" xmlns="http://www.w3.org/2000/svg">
<path d="M8.42955 8.95455H36L33.3273 22.3023C33.027 23.814 31.6864 24.8932 30.1455 24.8636H13.3295C11.7219 24.8773 10.3567 23.6895 10.1477 22.0955L7.72955 3.76818C7.52213 2.18618 6.17509 1.00242 4.57955 1H1M12.1364 36C13.8936 36 15.3182 34.5755 15.3182 32.8182C15.3182 31.0609 13.8936 29.6364 12.1364 29.6364C10.3791 29.6364 8.95455 31.0609 8.95455 32.8182C8.95455 34.5755 10.3791 36 12.1364 36ZM31.2273 36C32.9845 36 34.4091 34.5755 34.4091 32.8182C34.4091 31.0609 32.9845 29.6364 31.2273 29.6364C29.47 29.6364 28.0455 31.0609 28.0455 32.8182C28.0455 34.5755 29.47 36 31.2273 36Z" stroke="#4F4F4F" stroke-width="2" stroke-linecap="round" stroke-linejoin="round"/>
</svg>
