<svg width="38" height="38" viewBox="0 0 38 38" fill="none" xmlns="http://www.w3.org/2000/svg">
<path d="M17.1334 8.7334C11.4632 8.7334 6.8667 13.3299 6.8667 19.0001C6.8667 24.6702 11.4632 29.2667 17.1334 29.2667C22.8008 29.2603 27.3936 24.6675 27.4 19.0001C27.4 13.3299 22.8035 8.7334 17.1334 8.7334ZM17.1334 28.3334C11.9787 28.3334 7.80003 24.1547 7.80003 19.0001C7.80003 13.8454 11.9787 9.66673 17.1334 9.66673C22.2856 9.67262 26.4608 13.8478 26.4667 19.0001C26.4667 24.1547 22.288 28.3334 17.1334 28.3334Z" fill="#945790"/>
<path d="M21.1422 11.6201C20.9225 11.5093 20.6544 11.5882 20.5298 11.8003C20.3992 12.0225 20.4734 12.3085 20.6956 12.4391C23.1003 13.7461 24.5983 16.2631 24.6002 19C24.6002 19.2577 24.8091 19.4667 25.0669 19.4667C25.3246 19.4667 25.5335 19.2577 25.5335 19C25.5319 15.9214 23.8472 13.0901 21.1422 11.6201Z" fill="#945790"/>
<path d="M19.11 10.8334C18.4626 10.6777 17.799 10.5994 17.1332 10.6001C16.8755 10.6001 16.6665 10.8091 16.6665 11.0668C16.6665 11.3245 16.8755 11.5334 17.1332 11.5334C17.7248 11.5332 18.3145 11.6033 18.8897 11.742C18.9257 11.7511 18.9627 11.7556 18.9998 11.7556C19.2219 11.7598 19.4161 11.607 19.4643 11.3902C19.5202 11.1386 19.3616 10.8894 19.11 10.8334Z" fill="#945790"/>
<path d="M13.5713 25.5609C11.1666 24.2539 9.66866 21.7369 9.66673 19C9.66673 18.7423 9.45778 18.5333 9.20007 18.5333C8.94235 18.5333 8.7334 18.7423 8.7334 19C8.73503 22.0786 10.4198 24.9099 13.1247 26.3799C13.1929 26.4174 13.2695 26.4371 13.3473 26.4373C13.5184 26.4375 13.6758 26.3442 13.7577 26.1939C13.8811 25.9677 13.7976 25.6842 13.5713 25.5609Z" fill="#945790"/>
<path d="M17.1335 26.4667C16.5417 26.4675 15.9519 26.3981 15.3765 26.2599C15.3684 26.2577 15.3602 26.2557 15.352 26.254C15.1 26.2 14.852 26.3606 14.798 26.6126C14.7441 26.8646 14.9047 27.1126 15.1567 27.1666C15.8041 27.3223 16.4676 27.4006 17.1335 27.3999C17.3912 27.3999 17.6001 27.191 17.6001 26.9333C17.6001 26.6755 17.3912 26.4667 17.1335 26.4667Z" fill="#945790"/>
<path d="M20.8667 6.8667H17.1333C10.4323 6.8667 5 12.299 5 19C5 25.7011 10.4323 31.1334 17.1333 31.1334H20.8667C27.5646 31.1259 32.9925 25.698 33 19C33 10.6308 25.9067 6.8667 20.8667 6.8667ZM17.1333 30.2C10.9508 30.1929 5.94051 25.1826 5.93333 19C5.93333 12.8144 10.9477 7.80003 17.1333 7.80003C23.3189 7.80003 28.3333 12.8144 28.3333 19C28.3333 25.1856 23.3189 30.2 17.1333 30.2ZM21.9157 30.1492C28.0733 27.5101 30.9255 20.379 28.2865 14.2215C27.0632 11.3672 24.7917 9.09072 21.94 7.86117C26.4606 8.34557 32.0667 11.8526 32.0667 19C32.059 24.776 27.6657 29.6014 21.9157 30.1492Z" fill="#945790"/>
<path d="M18.9998 23.2H17.5998V14.3334C17.5998 14.0757 17.3908 13.8668 17.1331 13.8668C17.0093 13.8668 16.8907 13.916 16.8032 14.0034L14.7032 16.1034C14.5242 16.2888 14.5294 16.5843 14.7147 16.7633C14.8956 16.938 15.1823 16.938 15.3631 16.7633L16.6665 15.4599V23.2H15.2665C15.0088 23.2 14.7998 23.409 14.7998 23.6667C14.7998 23.9244 15.0088 24.1334 15.2665 24.1334H18.9998C19.2576 24.1334 19.4665 23.9244 19.4665 23.6667C19.4665 23.409 19.2576 23.2 18.9998 23.2Z" fill="#945790"/>
</svg>
