<svg width="38" height="38" viewBox="0 0 38 38" fill="none" xmlns="http://www.w3.org/2000/svg">
<path d="M28.9062 14.783H26.8916L27.4986 7.81364C27.4997 7.80101 27.4999 7.78857 27.5 7.77614C27.5 7.77507 27.5001 7.77407 27.5001 7.77301C27.5001 7.77282 27.5001 7.7727 27.5001 7.77251C27.5001 7.58282 27.3857 7.41563 27.2175 7.34295C27.216 7.34232 27.2147 7.34157 27.2132 7.34095C27.2028 7.33657 27.192 7.33282 27.1811 7.3292C27.177 7.32788 27.1732 7.32626 27.1691 7.32501C27.1602 7.32232 27.1511 7.3202 27.142 7.31801C27.1357 7.31651 27.1295 7.3147 27.1231 7.31345C27.1152 7.31188 27.1069 7.31088 27.0988 7.3097C27.0912 7.30857 27.0837 7.30726 27.076 7.30657C27.0747 7.30645 27.0735 7.3062 27.0722 7.30607C27.0639 7.30532 27.0558 7.30545 27.0476 7.30513C27.0421 7.30495 27.0367 7.30432 27.0312 7.30432H27.0253C27.0248 7.30432 27.0243 7.30432 27.0239 7.30432H17.4382C17.1794 7.30432 16.9694 7.51432 16.9694 7.77307C16.9694 8.0312 17.1794 8.24183 17.4382 8.24183H26.5203L25.5874 18.9528C25.5873 18.9536 25.5873 18.9544 25.5872 18.9552L25.3518 21.6578H9.06365L9.33609 18.8454H12.4374C12.6964 18.8454 12.9062 18.6356 12.9062 18.3767C12.9062 18.1178 12.6964 17.9079 12.4374 17.9079H9.42696L10.0022 11.9707H14.9382C15.1971 11.9707 15.4069 11.7608 15.4069 11.502C15.4069 11.2431 15.1971 11.0332 14.9382 11.0332H10.0931L10.3636 8.24183H15.5632C15.8213 8.24183 16.0319 8.0312 16.0319 7.77307C16.0319 7.51432 15.8213 7.30432 15.5632 7.30432H9.93815C9.9379 7.30432 9.93771 7.30438 9.93746 7.30438C9.71728 7.30432 9.52628 7.45932 9.48009 7.6742C9.47978 7.67576 9.47921 7.67726 9.4789 7.67882C9.47653 7.69051 9.47496 7.70245 9.4734 7.71445C9.47296 7.71826 9.47215 7.72189 9.47178 7.7257C9.47171 7.72645 9.47153 7.72714 9.47146 7.72789L9.15121 11.0332H3.46875C3.20981 11.0332 3 11.2431 3 11.502C3 11.7608 3.20981 11.9707 3.46875 11.9707H9.06034L8.48508 17.9079H6.81264C6.5537 17.9079 6.34389 18.1178 6.34389 18.3767C6.34389 18.6356 6.5537 18.8454 6.81264 18.8454H8.39427L8.08102 22.078C8.08096 22.0785 8.08096 22.079 8.08089 22.0794L7.59658 27.0782C7.59652 27.0787 7.59646 27.0793 7.59639 27.0798L7.59621 27.0817C7.59558 27.0882 7.59564 27.0945 7.59527 27.101C7.59483 27.1097 7.59396 27.1181 7.59396 27.1268C7.59396 27.1272 7.59402 27.1276 7.59402 27.128C7.59402 27.1401 7.59489 27.152 7.59577 27.1638C7.59614 27.1677 7.59602 27.1715 7.59646 27.1753C7.59771 27.1874 7.59977 27.1993 7.60196 27.2112C7.60258 27.2147 7.60289 27.2183 7.60358 27.2217C7.60539 27.2307 7.60796 27.2394 7.61033 27.2482C7.61196 27.2544 7.61327 27.2607 7.61514 27.2668C7.61571 27.2685 7.61646 27.2701 7.61696 27.2718C7.63964 27.3416 7.67814 27.4042 7.72839 27.4553C7.72933 27.4563 7.73008 27.4573 7.73102 27.4582C7.73602 27.4632 7.74146 27.4677 7.74671 27.4725C7.77902 27.5021 7.81552 27.5272 7.85546 27.5469C7.86377 27.551 7.87196 27.5553 7.88046 27.5589C7.88302 27.56 7.88577 27.5608 7.88839 27.5618C7.90014 27.5665 7.91196 27.571 7.92414 27.5748C7.92527 27.5751 7.92633 27.5753 7.92746 27.5757C7.94133 27.5798 7.95533 27.5834 7.96964 27.5863C7.97152 27.5867 7.97346 27.5868 7.97527 27.5872C7.98889 27.5898 8.00258 27.592 8.01652 27.5933C8.01683 27.5933 8.01708 27.5934 8.01739 27.5935C8.03277 27.595 8.04802 27.5957 8.06315 27.5957C8.06333 27.5957 8.06358 27.5957 8.06383 27.5957H10.1506C10.381 29.3427 11.8788 30.6959 13.6879 30.6959C15.4969 30.6959 16.9947 29.3427 17.2251 27.5957H24.7438C24.9743 29.3427 26.4721 30.6959 28.2811 30.6959C30.09 30.6959 31.588 29.3427 31.8185 27.5957H33.9057C33.9061 27.5957 33.9064 27.5957 33.9067 27.5957C33.9224 27.5957 33.9377 27.5948 33.953 27.5933C33.9557 27.593 33.9584 27.5925 33.9611 27.5922C33.9733 27.5907 33.9854 27.589 33.9973 27.5867C34.0024 27.5857 34.0074 27.5843 34.0124 27.5831C34.0216 27.581 34.0309 27.5787 34.0399 27.576C34.046 27.5742 34.0519 27.5721 34.0579 27.57C34.0656 27.5674 34.0733 27.5647 34.0809 27.5616C34.0874 27.559 34.0936 27.5562 34.0999 27.5534C34.1067 27.5502 34.1136 27.547 34.1203 27.5435C34.1267 27.5403 34.1328 27.5369 34.1389 27.5334C34.1454 27.5297 34.1517 27.5258 34.1581 27.5218C34.1639 27.518 34.1698 27.5142 34.1754 27.5102C34.1818 27.5058 34.1879 27.5011 34.1941 27.4963C34.1992 27.4923 34.2044 27.4883 34.2094 27.484C34.2158 27.4786 34.2219 27.4729 34.228 27.4671C34.2322 27.463 34.2367 27.459 34.2408 27.4548C34.2473 27.4482 34.2535 27.4412 34.2597 27.4341C34.263 27.4303 34.2664 27.4266 34.2696 27.4227C34.2765 27.4142 34.2827 27.4055 34.289 27.3967C34.2911 27.3936 34.2935 27.3907 34.2956 27.3876C34.3032 27.3762 34.3104 27.3644 34.317 27.3523C34.3175 27.3515 34.318 27.3508 34.3183 27.35C34.3254 27.337 34.3319 27.3237 34.3377 27.31C34.3393 27.306 34.3406 27.302 34.3421 27.298C34.3459 27.2883 34.3497 27.2787 34.3529 27.2686C34.3549 27.2621 34.3564 27.2554 34.3582 27.2488C34.3603 27.241 34.3625 27.2333 34.3642 27.2253C34.3658 27.2183 34.3668 27.211 34.368 27.2038C34.3691 27.1975 34.3704 27.1913 34.3712 27.1849C34.3911 27.0257 34.7582 24.0807 34.9221 22.1764C34.9223 22.1746 34.9224 22.1728 34.9226 22.1709C34.9698 21.622 35 21.1598 35 20.8768C35 17.5167 32.2664 14.783 28.9062 14.783ZM26.8099 15.7206H28.7276L28.4827 18.5329H26.565L26.8099 15.7206ZM13.688 29.7583C12.237 29.7583 11.0565 28.5778 11.0565 27.1268C11.0565 25.6758 12.237 24.4953 13.688 24.4953C15.139 24.4953 16.3196 25.6758 16.3196 27.1268C16.3196 28.5778 15.139 29.7583 13.688 29.7583ZM28.2811 29.7583C26.8301 29.7583 25.6497 28.5778 25.6497 27.1268C25.6497 25.6758 26.8302 24.4953 28.2811 24.4953C29.7322 24.4953 30.9127 25.6758 30.9127 27.1268C30.9127 28.5778 29.7322 29.7583 28.2811 29.7583ZM33.4916 26.6578H31.8186C31.5882 24.9106 30.0904 23.5575 28.2812 23.5575C26.4722 23.5575 24.9743 24.9107 24.744 26.6578H17.2253C16.9949 24.9106 15.4971 23.5575 13.688 23.5575C11.879 23.5575 10.381 24.9107 10.1507 26.6578H8.57915L8.97284 22.5951H25.7813V22.5953C25.7816 22.5953 25.7818 22.5953 25.782 22.5953C25.7977 22.5953 25.8133 22.5944 25.8287 22.5929C25.8315 22.5926 25.8343 22.592 25.8372 22.5916C25.8495 22.5902 25.8617 22.5884 25.8737 22.5861C25.8788 22.585 25.8839 22.5836 25.889 22.5823C25.8984 22.5801 25.9078 22.5779 25.9169 22.5751C25.9232 22.5733 25.9291 22.571 25.9352 22.5689C25.943 22.5661 25.9509 22.5634 25.9585 22.5603C25.9651 22.5576 25.9714 22.5546 25.9778 22.5516C25.9847 22.5484 25.9917 22.5453 25.9983 22.5418C26.0047 22.5384 26.011 22.5348 26.0173 22.5311C26.0237 22.5274 26.0301 22.5236 26.0363 22.5196C26.0424 22.5156 26.0482 22.5115 26.054 22.5074C26.0602 22.503 26.0662 22.4985 26.0722 22.4938C26.0775 22.4895 26.0828 22.4851 26.0881 22.4805C26.094 22.4754 26.0998 22.4701 26.1055 22.4647C26.1102 22.4601 26.115 22.4554 26.1196 22.4506C26.1252 22.4448 26.1307 22.4387 26.136 22.4325C26.1402 22.4276 26.1443 22.4228 26.1483 22.4178C26.1535 22.4112 26.1585 22.4044 26.1633 22.3976C26.167 22.3925 26.1706 22.3874 26.1741 22.3821C26.1787 22.3751 26.183 22.3678 26.1872 22.3604C26.1904 22.3549 26.1937 22.3494 26.1965 22.3438C26.2005 22.3364 26.2038 22.3289 26.2074 22.3214C26.2102 22.3153 26.213 22.3094 26.2155 22.3031C26.2185 22.2958 26.2211 22.2882 26.2238 22.2806C26.2261 22.2739 26.2285 22.2673 26.2306 22.2604C26.2327 22.2531 26.2343 22.2457 26.2362 22.2383C26.238 22.2309 26.24 22.2235 26.2415 22.2159C26.2429 22.2086 26.2438 22.2011 26.2449 22.1936C26.246 22.1858 26.2473 22.1782 26.2481 22.1703C26.2482 22.1692 26.2485 22.1681 26.2485 22.167L26.4835 19.4701H28.9061C30.3423 19.4701 30.99 20.2143 31.6757 21.0021C32.2416 21.6522 32.8732 22.3775 33.947 22.5544C33.8106 23.9963 33.5902 25.8473 33.4916 26.6578ZM34.0271 21.6151C33.3306 21.4731 32.902 20.9834 32.3828 20.3869C31.7335 19.6409 30.9408 18.7306 29.4212 18.561L29.6637 15.7767C32.149 16.1443 34.0625 18.2911 34.0625 20.8769C34.0625 21.0526 34.0494 21.3078 34.0271 21.6151Z" fill="#945790"/>
<path d="M13.688 25.4078C12.7403 25.4078 11.9692 26.1788 11.9692 27.1266C11.9692 28.0743 12.7403 28.8454 13.688 28.8454C14.6357 28.8454 15.4068 28.0743 15.4068 27.1266C15.4068 26.1789 14.6357 25.4078 13.688 25.4078ZM13.688 27.9078C13.2572 27.9078 12.9067 27.5574 12.9067 27.1266C12.9067 26.6958 13.2572 26.3453 13.688 26.3453C14.1188 26.3453 14.4692 26.6958 14.4692 27.1266C14.4692 27.5574 14.1187 27.9078 13.688 27.9078Z" fill="#945790"/>
<path d="M28.2813 25.4078C27.3336 25.4078 26.5625 26.1788 26.5625 27.1266C26.5625 28.0743 27.3336 28.8454 28.2813 28.8454C29.2289 28.8454 30 28.0743 30 27.1266C30 26.1789 29.2289 25.4078 28.2813 25.4078ZM28.2813 27.9078C27.8504 27.9078 27.5 27.5574 27.5 27.1266C27.5 26.6958 27.8504 26.3453 28.2813 26.3453C28.7121 26.3453 29.0625 26.6958 29.0625 27.1266C29.0625 27.5574 28.7121 27.9078 28.2813 27.9078Z" fill="#945790"/>
<path d="M7.43763 14.783H5.146C4.88706 14.783 4.67725 14.9928 4.67725 15.2517C4.67725 15.5106 4.88706 15.7205 5.146 15.7205H7.43763C7.69657 15.7205 7.90638 15.5106 7.90638 15.2517C7.90638 14.9928 7.69657 14.783 7.43763 14.783Z" fill="#945790"/>
</svg>
