<svg width="38" height="38" viewBox="0 0 38 38" fill="none" xmlns="http://www.w3.org/2000/svg">
<path d="M30.9893 11.5957C30.987 11.497 30.9581 11.4007 30.9057 11.3166C30.8533 11.2325 30.7792 11.1636 30.6909 11.1169L19.2632 5.06631C19.1807 5.02278 19.0886 5 18.995 5C18.9014 5 18.8093 5.02278 18.7268 5.06631L7.29906 11.1182C7.2108 11.1648 7.13669 11.2337 7.08428 11.3179C7.03187 11.402 7.00304 11.4983 7.00074 11.597C6.99685 11.7326 6.77399 25.2523 18.6675 33.5476C18.7633 33.6142 18.8777 33.65 18.995 33.65C19.1123 33.65 19.2267 33.6142 19.3225 33.5476C31.2144 25.2511 30.9932 11.7314 30.9893 11.5957V11.5957ZM18.995 32.4022C8.92123 25.1486 8.18529 13.9655 8.13671 11.943L18.995 6.19247L29.8533 11.943C29.8047 13.9655 29.0688 25.1486 18.995 32.4022Z" fill="#945790"/>
<path d="M18.7265 7.60257L9.61152 12.4293C9.5151 12.4804 9.43575 12.558 9.38305 12.6526C9.33034 12.7472 9.30653 12.8548 9.31449 12.9624C9.55969 16.2617 10.9587 24.5965 18.6384 30.7231C18.7393 30.8033 18.8651 30.847 18.9947 30.847C19.1244 30.847 19.2501 30.8033 19.351 30.7231C27.0311 24.5943 28.4297 16.263 28.6746 12.9627C28.6826 12.8551 28.6587 12.7475 28.606 12.6529C28.5533 12.5583 28.474 12.4808 28.3776 12.4296L19.2629 7.60257C19.1804 7.55903 19.0883 7.53625 18.9947 7.53625C18.9011 7.53625 18.809 7.55903 18.7265 7.60257V7.60257ZM27.5137 13.2407C27.2115 16.5496 25.7603 23.9549 18.9947 29.5647C12.2301 23.9555 10.7786 16.5499 10.4757 13.2407L18.9947 8.72905L27.5137 13.2407Z" fill="#945790"/>
<path d="M13.9199 17.9144C13.9199 18.9035 14.2174 19.8704 14.775 20.6929C15.3326 21.5154 16.1252 22.1564 17.0524 22.535C17.9797 22.9135 19.0001 23.0126 19.9846 22.8197C20.969 22.6267 21.8733 22.1505 22.583 21.4511C23.2928 20.7517 23.7761 19.8606 23.972 18.8905C24.1678 17.9204 24.0673 16.9148 23.6832 16.001C23.2991 15.0871 22.6487 14.3061 21.8141 13.7565C20.9796 13.207 19.9984 12.9137 18.9947 12.9137C17.6493 12.9152 16.3595 13.4426 15.4081 14.38C14.4567 15.3175 13.9216 16.5886 13.9199 17.9144V17.9144ZM22.9358 17.9144C22.9359 18.6825 22.7048 19.4335 22.2718 20.0722C21.8387 20.7109 21.2233 21.2088 20.5031 21.5028C19.783 21.7968 18.9906 21.8737 18.226 21.7239C17.4615 21.5741 16.7593 21.2042 16.2081 20.6611C15.6569 20.1179 15.2815 19.4259 15.1294 18.6725C14.9773 17.9191 15.0553 17.1382 15.3536 16.4285C15.6519 15.7188 16.157 15.1123 16.8051 14.6855C17.4532 14.2587 18.2152 14.0309 18.9947 14.0309C20.0395 14.0321 21.0412 14.4416 21.78 15.1697C22.5189 15.8977 22.9345 16.8848 22.9358 17.9144V17.9144Z" fill="#945790"/>
<path d="M17.5594 17.7698C17.4504 17.6701 17.306 17.6167 17.1574 17.6209C17.0087 17.6252 16.8677 17.6868 16.7648 17.7925C16.6618 17.8982 16.6052 18.0396 16.607 18.1861C16.6088 18.3326 16.669 18.4726 16.7745 18.5758L17.9928 19.7275C18.0983 19.8272 18.2388 19.8829 18.385 19.883H18.4135C18.4907 19.8792 18.5662 19.8598 18.6355 19.8262C18.7048 19.7925 18.7664 19.7453 18.8165 19.6873L21.2539 16.8664C21.3507 16.7536 21.3982 16.6075 21.3859 16.4603C21.3737 16.313 21.3027 16.1765 21.1886 16.0807C21.0745 15.9849 20.9265 15.9375 20.777 15.9489C20.6275 15.9604 20.4887 16.0298 20.391 16.1418L18.3436 18.5104L17.5594 17.7698Z" fill="#945790"/>
</svg>
