<svg width="61" height="61" viewBox="0 0 61 61" fill="none" xmlns="http://www.w3.org/2000/svg">
<circle cx="30.5" cy="30.5" r="30" fill="#EAEAEA" stroke="#C4C4C4"/>
<mask id="mask0_0_2421" style="mask-type:alpha" maskUnits="userSpaceOnUse" x="0" y="0" width="61" height="61">
<circle cx="30.5" cy="30.5" r="30.5" fill="#C4C4C4"/>
</mask>
<g mask="url(#mask0_0_2421)">
<path d="M-1.36133 -1.36163L62.6342 62.6339" stroke="#C4C4C4"/>
<path d="M-1.36133 62.6339L62.6342 -1.36162" stroke="#C4C4C4"/>
</g>
<circle cx="30.5004" cy="30.5" r="17.1723" fill="#EAEAEA"/>
<path d="M22.5547 26.9631C22.5547 25.9439 23.4223 25.1177 24.4926 25.1177C25.5628 25.1177 26.4305 25.9439 26.4305 26.9631C26.4305 27.9822 25.5628 28.8084 24.4926 28.8084C23.4223 28.8084 22.5547 27.9822 22.5547 26.9631Z" fill="#959595"/>
<path d="M38.4454 34.3446H22.9423V32.1301L24.8566 30.3071C25.0837 30.0909 25.4518 30.0909 25.6788 30.3071L27.5932 32.1301L33.3834 26.6164C33.6104 26.4002 33.9785 26.4002 34.2056 26.6164L38.4454 30.6538V34.3446Z" fill="#959595"/>
</svg>
