<svg width="31" height="31" viewBox="0 0 31 31" fill="none" xmlns="http://www.w3.org/2000/svg">
<g clip-path="url(#clip0_50_1692)">
<path d="M1.93761 2.10919C-0.498468 4.63957 0.000114949 7.32753 0.000114949 15.4934C0.000114949 22.2747 -1.18305 29.0727 5.0092 30.6731C6.94282 31.1704 24.0755 31.1704 26.0065 30.6705C28.5847 30.0053 30.6824 27.9141 30.9691 24.2677C31.0092 23.7588 31.0092 7.23711 30.9678 6.71786C30.663 2.83382 28.2721 0.595361 25.1217 0.141986C24.3997 0.0373606 24.255 0.00636058 20.5505 -9.77537e-05C7.41041 0.00636058 4.52999 -0.578764 1.93761 2.10919V2.10919Z" fill="url(#paint0_linear_50_1692)"/>
<path d="M15.4975 4.05452C10.8075 4.05452 6.35379 3.63731 4.65267 8.00314C3.95 9.80631 4.05204 12.1481 4.05204 15.5013C4.05204 18.4437 3.95775 21.2091 4.65267 22.9981C6.34992 27.3665 10.8398 26.948 15.4949 26.948C19.986 26.948 24.6167 27.4156 26.3385 22.9981C27.0424 21.1769 26.9391 18.8699 26.9391 15.5013C26.9391 11.0295 27.1858 8.14264 25.0171 5.97523C22.8213 3.77939 19.8517 4.05452 15.4923 4.05452H15.4975ZM14.4719 6.11731C24.255 6.10181 25.5002 5.01423 24.813 20.1229C24.5689 25.4665 20.5001 24.8801 15.4988 24.8801C6.37963 24.8801 6.11742 24.6191 6.11742 15.4961C6.11742 6.26714 6.84075 6.12248 14.4719 6.11473V6.11731ZM21.6071 8.01735C20.8489 8.01735 20.234 8.63219 20.234 9.39039C20.234 10.1486 20.8489 10.7634 21.6071 10.7634C22.3653 10.7634 22.9801 10.1486 22.9801 9.39039C22.9801 8.63219 22.3653 8.01735 21.6071 8.01735V8.01735ZM15.4975 9.62289C12.2515 9.62289 9.62042 12.2553 9.62042 15.5013C9.62042 18.7472 12.2515 21.3784 15.4975 21.3784C18.7435 21.3784 21.3733 18.7472 21.3733 15.5013C21.3733 12.2553 18.7435 9.62289 15.4975 9.62289V9.62289ZM15.4975 11.6857C20.5415 11.6857 20.5479 19.3169 15.4975 19.3169C10.4548 19.3169 10.4471 11.6857 15.4975 11.6857Z" fill="white"/>
</g>
<defs>
<linearGradient id="paint0_linear_50_1692" x1="1.99706" y1="29.0199" x2="30.8083" y2="4.08412" gradientUnits="userSpaceOnUse">
<stop stop-color="#FFDD55"/>
<stop offset="0.5" stop-color="#FF543E"/>
<stop offset="1" stop-color="#C837AB"/>
</linearGradient>
<clipPath id="clip0_50_1692">
<rect width="31" height="31" fill="white"/>
</clipPath>
</defs>
</svg>
