<svg width="118" height="118" viewBox="0 0 118 118" fill="none" xmlns="http://www.w3.org/2000/svg">
<path d="M18.6429 81.7035L21.2941 78.7367L17.3804 79.41L18.6429 81.7035Z" fill="#252525"/>
<path d="M90.3095 87.0062L89.4468 87.911L91.4247 89.7837L92.2874 88.8789C93.0238 88.1004 93.0449 87.385 92.3715 86.7327C91.7403 86.1435 91.0459 86.2277 90.3095 87.0062Z" fill="#252525"/>
<path d="M66.0698 104.323L68.6579 103.86L66.7011 100.388L66.0698 104.323Z" fill="#252525"/>
<path d="M27.2275 88.2477C27.8798 87.6796 27.8588 86.9852 27.1434 86.1646L26.3228 85.2178L24.2817 87.0063L25.1024 87.9532C25.7967 88.7738 26.5121 88.879 27.2275 88.2477Z" fill="#252525"/>
<path d="M88.0367 23.482L89.3833 24.6182L91.0246 22.6614L89.6779 21.5252C88.9204 20.8939 88.2682 20.8939 87.7211 21.5462C87.174 22.1985 87.2792 22.8297 88.0367 23.482Z" fill="#252525"/>
<path d="M56.7701 16.8542C57.8012 16.7911 58.2851 16.3282 58.243 15.4444C58.201 14.5607 57.6539 14.1399 56.6439 14.1819L54.8975 14.2661L55.0447 16.9173L56.7701 16.8542Z" fill="#252525"/>
<path d="M69.2473 11.5306L66.533 11.0256L66.1332 13.1719C65.8176 14.8972 65.2915 16.307 64.5972 17.4012L68.0059 18.0535L69.2473 11.5306Z" fill="#252525"/>
<path d="M101.503 68.6158C101.209 68.5316 100.935 68.5737 100.683 68.721C100.451 68.8893 100.283 69.1418 100.199 69.4785L99.7148 71.1828L101.714 71.7509L102.198 70.0466C102.303 69.6889 102.282 69.3733 102.156 69.1418C102.05 68.8893 101.84 68.6999 101.503 68.6158Z" fill="#252525"/>
<path d="M100.409 78.1054C99.5885 77.6425 98.789 77.5163 97.9894 77.7267C97.2319 77.9371 96.6217 78.421 96.2009 79.1785C95.759 79.936 95.6538 80.6935 95.8642 81.451C96.0746 82.2506 96.6007 82.8608 97.4002 83.3447C98.2208 83.8076 99.0204 83.9339 99.82 83.7235C100.577 83.5131 101.188 83.0291 101.609 82.2716C102.05 81.5141 102.156 80.7566 101.945 79.9991C101.735 79.2206 101.209 78.5894 100.409 78.1054Z" fill="#252525"/>
<path d="M105.648 69.3734C104.912 69.163 104.386 69.5417 104.112 70.5307L103.607 72.2981L105.838 72.9294L106.343 71.1409C106.616 70.173 106.385 69.5838 105.648 69.3734Z" fill="#252525"/>
<path d="M59 0C26.4069 0 0 26.4069 0 59C0 91.5931 26.4069 118 59 118C91.5931 118 118 91.5931 118 59C118.021 26.428 91.5931 0 59 0ZM88.0581 18.6006C88.9839 18.5164 89.9098 18.8531 90.8145 19.6106L94.2653 22.4932L87.2796 30.8466L85.428 29.3106L88.0581 26.1755L87.4479 25.6494L82.7978 27.1013L80.5464 25.2286L85.5121 23.7978C85.0703 23.1455 84.8809 22.4722 84.944 21.7568C85.0071 21.0624 85.2807 20.4312 85.7857 19.842C86.4379 19.0845 87.1954 18.6637 88.0581 18.6006ZM92.2033 59C92.2033 77.3481 77.327 92.2033 59 92.2033C40.673 92.2033 25.7967 77.327 25.7967 59C25.7967 40.6519 40.673 25.7967 59 25.7967C77.327 25.7967 92.2033 40.673 92.2033 59ZM78.5895 12.1409L75.6016 18.327H75.6227L83.2817 14.4133L85.1123 15.2971L80.378 25.1024L78.2108 24.0503L81.1986 17.8852H81.1776L73.5185 21.7989L71.6669 20.9151L76.4012 11.1098L78.5895 12.1409ZM62.2404 16.9173C62.9558 15.781 63.4608 14.3713 63.7764 12.6879L64.597 8.35342L72.0456 9.76319L70.4044 18.4743L71.6879 18.7268L70.9094 22.8509L68.7001 22.4301L69.0578 20.5153L62.7874 19.337L62.4297 21.2518L60.2204 20.831L60.9989 16.7068L62.2404 16.9173ZM54.5813 8.24822L54.7917 12.1198L56.8748 12.0146C57.969 11.9515 58.8317 12.183 59.4839 12.6669C60.2625 13.2561 60.6833 14.1398 60.7464 15.3181C60.8096 16.5175 60.4939 17.4223 59.7785 18.0745C59.1683 18.6427 58.3267 18.9372 57.2536 19.0004L52.7718 19.2318L52.1616 8.37446L54.5813 8.24822ZM48.2899 8.94258L51.4461 19.3581L49.1316 20.0524L46.6277 11.7832L42.8823 12.9194L44.5867 18.5374C45.1337 20.326 44.5025 21.4832 42.714 22.0303L41.8302 22.3039L41.199 20.1576L41.8513 19.9683C42.2511 19.842 42.3773 19.5474 42.2511 19.0635L39.9576 11.4886L48.2899 8.94258ZM29.521 17.1487L33.1612 22.9772H33.1822L33.9608 14.3923L35.6862 13.3192L41.4515 22.5563L39.4105 23.8399L35.7703 18.0325H35.7493L34.9708 26.5963L33.2243 27.6904L27.459 18.4533L29.521 17.1487ZM25.2707 20.326L26.8698 21.9251L23.882 24.913L29.9839 31.015L28.2796 32.7193L20.5995 25.0182L25.2707 20.326ZM10.2261 73.2871L18.3902 71.0988L17.2539 66.8484L9.08987 69.0367L8.47967 66.7643L18.7689 64.0078L21.1466 72.8242L10.8573 75.5806L10.2261 73.2871ZM16.9173 87.3638L15.6337 85.0703L17.1487 83.3659L15.1708 79.7678L12.9194 80.1676L11.6359 77.8531L22.9982 76.3802L24.1976 78.5685L16.9173 87.3638ZM23.6295 89.531L22.6826 88.4369L19.9472 90.8356L18.3902 89.0681L26.3859 82.0403L28.8898 84.9019C29.7315 85.8698 30.1523 86.8377 30.1102 87.7846C30.0892 88.6473 29.6894 89.4258 28.9319 90.0991C28.1113 90.8145 27.2696 91.1302 26.3648 91.067C25.3969 91.025 24.4711 90.4989 23.6295 89.531ZM31.036 100.767L34.9708 95.3384H34.9497L26.8909 97.8003L25.2707 96.622L31.52 87.995L33.4347 89.3837L29.5 94.8334H29.521L37.6009 92.3716L39.2211 93.5499L32.9718 102.177L31.036 100.767ZM42.3352 106.301L40.1259 99.9255L38.2532 104.681L36.0649 103.818L39.9576 93.9076L42.1459 94.7703L40.4205 99.168L45.6808 96.159L48.6687 97.3374L42.7561 100.367L45.4914 107.521L42.3352 106.301ZM58.3056 109.205L57.4219 103.019H57.4008L55.0232 107.374L53.3399 107.227L51.8038 102.514H51.7828L49.7839 108.426L47.322 108.195L51.0043 97.8424L52.7718 98.0107L54.4971 103.629H54.5182L57.2325 98.4315L59 98.5998L60.7254 109.457L58.3056 109.205ZM70.8673 107.795L69.7311 105.796L65.6911 106.511L65.3335 108.763L62.7243 109.226L64.9968 98.0107L67.4586 97.5688L73.4554 107.311L70.8673 107.795ZM82.3138 103.587L78.5474 101.209L77.832 105.607L75.0756 106.848L76.3802 100.115L71.0357 97.0007L73.771 95.7803L76.9904 97.7792L77.6216 94.0339L80.357 92.8135L79.1576 98.8734L85.0703 102.366L82.3138 103.587ZM86.6694 101.125L80.4201 92.5189L85.7436 88.6473L87.0061 90.3727L83.5763 92.8556L84.5863 94.2653L87.6583 92.0349L88.9208 93.7603L85.8488 95.9907L87.3006 97.9896L90.7935 95.4647L92.056 97.1901L86.6694 101.125ZM94.0339 95.4647L86.2906 88.1633L88.8998 85.3859C89.7835 84.439 90.7093 83.9551 91.6562 83.913C92.5189 83.8498 93.3395 84.1655 94.076 84.8809C94.8755 85.6173 95.2753 86.4379 95.2964 87.3427C95.3174 88.3106 94.8966 89.2575 94.0128 90.2043L93.0239 91.2564L95.6751 93.7603L94.0339 95.4647ZM103.713 83.4921C102.913 84.8809 101.798 85.7857 100.409 86.1854C98.9576 86.6063 97.5267 86.3959 96.0959 85.5963C94.6861 84.7757 93.7814 83.6394 93.4026 82.1665C93.0449 80.7568 93.2764 79.347 94.076 77.9583C94.8755 76.5695 95.9907 75.6648 97.3794 75.2439C98.8313 74.8231 100.262 75.0335 101.672 75.8541C103.103 76.6747 103.986 77.811 104.365 79.2628C104.744 80.6726 104.512 82.0824 103.713 83.4921ZM107.227 75.791L97.0007 72.8452L98.2211 68.6159C98.4946 67.669 98.9155 66.9747 99.4625 66.5328C100.094 66.0699 100.83 65.9436 101.672 66.1961C102.829 66.5328 103.439 67.2903 103.46 68.4686H103.481C104.113 67.143 105.165 66.6801 106.596 67.1009C107.585 67.3745 108.216 67.9426 108.51 68.7842C108.784 69.4996 108.763 70.3834 108.468 71.3934L107.227 75.791Z" fill="#252525"/>
<path d="M70.3204 44.8812C72.6139 44.8812 73.7712 43.4714 73.7712 41.3041V37.1379C73.7712 36.9486 73.6239 36.8013 73.4345 36.8013H71.8354C71.646 36.8013 71.4987 36.9486 71.4987 37.1379V41.4514C71.4987 42.3772 71.0989 42.9453 70.3204 42.9453C69.5419 42.9453 69.1421 42.3562 69.1421 41.4514V37.1379C69.1421 36.9486 68.9948 36.8013 68.8054 36.8013H67.2063C67.0169 36.8013 66.8696 36.9486 66.8696 37.1379V41.3041C66.8696 43.5135 68.0269 44.8812 70.3204 44.8812Z" fill="#252525"/>
<path d="M48.1006 45.0074C50.4573 45.0074 51.9933 43.4082 51.9933 40.8412C51.9933 38.2741 50.4573 36.6539 48.1006 36.6539C45.765 36.6539 44.229 38.2531 44.229 40.8412C44.229 43.4293 45.744 45.0074 48.1006 45.0074ZM48.1006 38.6739C49.0264 38.6739 49.6787 39.3893 49.6787 40.8412C49.6787 42.3141 49.0475 43.0084 48.1006 43.0084C47.1958 43.0084 46.5436 42.3141 46.5436 40.8412C46.5436 39.3683 47.1748 38.6739 48.1006 38.6739Z" fill="#252525"/>
<path d="M53.6764 44.8812H59.1682C59.3155 44.8812 59.4417 44.755 59.4417 44.6077V43.1558C59.4417 43.0086 59.3155 42.8823 59.1682 42.8823H55.9909C55.8436 42.8823 55.7174 42.7561 55.7174 42.6088V37.0959C55.7174 36.9486 55.5911 36.8224 55.4438 36.8224H53.6764C53.5291 36.8224 53.4028 36.9486 53.4028 37.0959V44.6077C53.4028 44.755 53.508 44.8812 53.6764 44.8812Z" fill="#252525"/>
<path d="M59.4415 38.7792H61.1879C61.3352 38.7792 61.4615 38.9055 61.4615 39.0528V44.6077C61.4615 44.755 61.5877 44.8812 61.735 44.8812H63.5025C63.6498 44.8812 63.776 44.755 63.776 44.6077V39.0528C63.776 38.9055 63.9023 38.7792 64.0496 38.7792H65.796C65.9433 38.7792 66.0695 38.653 66.0695 38.5057V37.0959C66.0695 36.9486 65.9433 36.8224 65.796 36.8224H59.4415C59.2942 36.8224 59.168 36.9486 59.168 37.0959V38.5057C59.168 38.653 59.2942 38.7792 59.4415 38.7792Z" fill="#252525"/>
<path d="M44.3765 48.4585V57.906C48.732 55.8229 52.0776 51.9934 53.4874 47.3012C53.2349 47.0908 52.8982 46.9435 52.5195 46.9435H45.8914C45.0498 46.9435 44.3765 47.6168 44.3765 48.4585Z" fill="#252525"/>
<path d="M61.6514 72.9505C61.3989 72.9925 59.3579 73.1819 59.0844 73.1819C55.6967 73.1819 54.0345 70.7411 54.0345 66.7853V48.6056C52.3511 53.2137 48.8372 56.959 44.3765 58.9579V66.112C44.3765 72.5296 46.7541 77.3902 51.4884 79.7468C55.6967 78.2529 59.7156 75.9173 61.6514 72.9505Z" fill="#252525"/>
<path d="M72.2772 46.9435H65.6071C64.7655 46.9435 64.0922 47.6168 64.0922 48.4585V66.7855C64.0922 67.2063 64.0711 67.6061 64.029 68.0059H64.0501C64.0501 73.4346 60.6624 78.232 55.5283 81.0515C56.6435 81.2409 57.8218 81.3461 59.0843 81.3461C68.8685 81.3461 73.7922 75.5387 73.7922 66.1122V48.4585C73.7922 47.6168 73.0979 46.9435 72.2772 46.9435Z" fill="#252525"/>
</svg>
