<svg width="19" height="21" viewBox="0 0 19 21" fill="none" xmlns="http://www.w3.org/2000/svg">
<path d="M11.4476 13.4706L18.6726 5.68983L13.9309 0.583314L6.70588 8.36408V0.230774H0V17.0815C0 19.0725 1.50413 20.6923 3.35294 20.6923H19V13.4706H11.4476ZM5.58824 6.24887H1.11765V4.44344H5.58824V6.24887ZM5.58824 7.45249V9.25792H1.11765V7.45249H5.58824ZM5.58824 10.4615V12.267H1.11765V10.4615H5.58824ZM6.70588 17.0815V14.6742H9.5V19.4887H5.84976C6.38176 18.8494 6.70588 18.0055 6.70588 17.0815ZM10.6176 14.6742H12.2941V19.4887H10.6176V14.6742ZM13.4118 14.6742H15.0882V19.4887H13.4118V14.6742ZM13.1406 9.94527L11.9551 11.2219L8.79395 7.81759L9.9794 6.54095L13.1406 9.94527ZM10.7697 5.68983L11.9551 4.41319L15.1163 7.81755L13.9309 9.09419L10.7697 5.68983ZM17.0921 5.68983L15.9066 6.96647L12.7454 3.56211L13.9309 2.28547L17.0921 5.68983ZM8.00366 8.66867L11.1648 12.073L9.86704 13.4706H6.70588V10.0663L8.00366 8.66867ZM5.58824 1.43439V3.23982H1.11765V1.43439H5.58824ZM1.11765 17.0815V13.4706H5.58824V17.0815C5.58824 18.4088 4.58548 19.4887 3.35294 19.4887C2.1204 19.4887 1.11765 18.4088 1.11765 17.0815ZM17.8824 19.4887H16.2059V14.6742H17.8824V19.4887Z" fill="#FF543E"/>
<path d="M2.79412 15.8778H3.91176V17.0815H2.79412V15.8778Z" fill="#FF543E"/>
</svg>
