<svg width="36" height="36" viewBox="0 0 36 36" fill="none" xmlns="http://www.w3.org/2000/svg">
<rect x="0.5" y="0.5" width="35" height="35" rx="5.5" fill="white" stroke="#D4D4D4"/>
<path d="M7 10H13V14H7V10Z" fill="#945790"/>
<path d="M7 16H13V20H7V16Z" fill="#945790"/>
<path d="M7 22H13V26H7V22Z" fill="#945790"/>
<path d="M15 10H21V14H15V10Z" fill="#945790"/>
<path d="M15 16H21V20H15V16Z" fill="#945790"/>
<path d="M15 22H21V26H15V22Z" fill="#945790"/>
<path d="M23 10H29V14H23V10Z" fill="#945790"/>
<path d="M23 16H29V20H23V16Z" fill="#945790"/>
<path d="M23 22H29V26H23V22Z" fill="#945790"/>
</svg>
