<svg width="27" height="27" viewBox="0 0 27 27" fill="none" xmlns="http://www.w3.org/2000/svg">
<path d="M13.5 27C20.9558 27 27 20.9558 27 13.5C27 6.04416 20.9558 0 13.5 0C6.04416 0 0 6.04416 0 13.5C0 20.9558 6.04416 27 13.5 27Z" fill="#6F3FAA"/>
<path d="M19.3569 7.40619C16.0709 6.61253 12.7791 5.6842 9.40922 6.86365C7.22739 7.68183 7.22739 10.0455 7.31831 12.0455C7.31831 12.5909 6.68196 13.3182 6.95465 13.9546C7.50008 15.7728 7.95465 17.5909 9.86374 18.5C10.1365 18.6818 9.86374 19.0455 10.0456 19.3182C9.95466 19.3182 9.77283 19.4091 9.77283 19.5C9.77283 19.9358 9.96837 20.6023 9.83848 21.032L15.6396 26.8306C21.6033 25.8809 26.2644 21.0263 26.9202 14.9696L19.3569 7.40619Z" fill="#6F3FAA"/>
<path d="M20.6415 9.48825L20.6371 9.47043C20.2764 8.01217 18.6502 6.44743 17.1567 6.1219L17.1399 6.11842C14.7244 5.65763 12.2751 5.65763 9.86009 6.11842L9.84274 6.1219C8.34983 6.44743 6.72355 8.01227 6.36238 9.47043L6.35837 9.48825C5.91245 11.5247 5.91245 13.59 6.35837 15.6264L6.36238 15.6443C6.70821 17.0402 8.2133 18.5331 9.651 18.9437V20.5715C9.651 21.1607 10.369 21.45 10.7772 21.0248L12.4265 19.3105C12.7843 19.3305 13.1422 19.3417 13.5 19.3417C14.7159 19.3417 15.9323 19.2267 17.1399 18.9963L17.1567 18.9928C18.6501 18.6673 20.2763 17.1025 20.637 15.6443L20.6415 15.6265C21.0874 13.59 21.0874 11.5248 20.6415 9.48825ZM19.3363 15.3312C19.0955 16.2825 17.8607 17.4653 16.8797 17.6838C15.5953 17.9281 14.3007 18.0324 13.0075 17.9966C12.9818 17.9959 12.957 18.0059 12.9391 18.0244C12.7556 18.2127 11.735 19.2606 11.735 19.2606L10.4541 20.5751C10.3605 20.6728 10.196 20.6063 10.196 20.4716V17.7749C10.196 17.7304 10.1642 17.6926 10.1204 17.6839C10.1201 17.6838 10.1199 17.6838 10.1196 17.6838C9.13858 17.4652 7.90428 16.2825 7.66302 15.3311C7.26165 13.4904 7.26165 11.6243 7.66302 9.78357C7.90428 8.83219 9.13858 7.64946 10.1196 7.43093C12.3628 7.00431 14.6371 7.00431 16.8797 7.43093C17.8613 7.64946 19.0955 8.83219 19.3364 9.78357C19.7381 11.6244 19.7381 13.4904 19.3363 15.3312Z" fill="white"/>
<path d="M15.6339 16.5759C15.4831 16.5301 15.3394 16.4994 15.2058 16.4441C13.8225 15.8702 12.5495 15.1298 11.5412 13.9949C10.9678 13.3495 10.5189 12.6209 10.1396 11.8498C9.95963 11.4841 9.80802 11.1042 9.65346 10.7266C9.51255 10.3823 9.72011 10.0267 9.93865 9.76726C10.1437 9.52378 10.4077 9.33752 10.6935 9.20015C10.9166 9.09299 11.1366 9.1548 11.2995 9.34385C11.6517 9.75265 11.9752 10.1823 12.2371 10.6562C12.3982 10.9477 12.354 11.3039 12.062 11.5023C11.9911 11.5505 11.9264 11.6071 11.8603 11.6615C11.8023 11.7093 11.7478 11.7575 11.708 11.8221C11.6354 11.9402 11.6319 12.0797 11.6787 12.2082C12.0387 13.1976 12.6455 13.967 13.6414 14.3814C13.8008 14.4477 13.9608 14.5248 14.1444 14.5035C14.4518 14.4676 14.5514 14.1303 14.7668 13.9541C14.9774 13.7819 15.2466 13.7797 15.4734 13.9232C15.7003 14.0668 15.9202 14.2209 16.1388 14.3768C16.3535 14.5297 16.5671 14.6792 16.765 14.8536C16.9554 15.0212 17.0209 15.2411 16.9137 15.4686C16.7175 15.8852 16.432 16.2318 16.0202 16.453C15.9039 16.5154 15.765 16.5356 15.6339 16.5759C15.765 16.5356 15.4831 16.5301 15.6339 16.5759Z" fill="white"/>
<path d="M13.5038 8.72374C15.3131 8.77447 16.7992 9.97518 17.1176 11.7639C17.1719 12.0687 17.1912 12.3803 17.2154 12.6897C17.2255 12.8198 17.1518 12.9434 17.0114 12.9451C16.8664 12.9469 16.8012 12.8255 16.7917 12.6955C16.7731 12.438 16.7601 12.1794 16.7247 11.9241C16.5374 10.5763 15.4627 9.46123 14.1211 9.22197C13.9192 9.18595 13.7127 9.17651 13.5081 9.15505C13.3789 9.1415 13.2096 9.13369 13.181 8.97296C13.157 8.83822 13.2707 8.73096 13.399 8.72405C13.4337 8.722 13.4688 8.72363 13.5038 8.72374C13.4688 8.72363 15.3132 8.77447 13.5038 8.72374Z" fill="white"/>
<path d="M16.2532 12.2882C16.2502 12.3108 16.2487 12.3639 16.2354 12.4139C16.1874 12.5955 15.9119 12.6183 15.8486 12.435C15.8298 12.3807 15.827 12.3187 15.8269 12.2602C15.8262 11.877 15.743 11.4942 15.5497 11.1607C15.351 10.818 15.0475 10.53 14.6916 10.3557C14.4763 10.2503 14.2436 10.1847 14.0077 10.1458C13.9046 10.1287 13.8004 10.1184 13.6968 10.104C13.5712 10.0865 13.5041 10.0065 13.5101 9.88278C13.5157 9.76687 13.6004 9.6834 13.7268 9.69062C14.1419 9.71414 14.543 9.804 14.9122 9.99943C15.6629 10.397 16.0917 11.0244 16.2169 11.8623C16.2225 11.9003 16.2316 11.9379 16.2345 11.976C16.2416 12.0699 16.246 12.1641 16.2532 12.2882C16.246 12.1641 16.2502 12.3107 16.2532 12.2882Z" fill="white"/>
<path d="M15.1279 12.2444C14.9765 12.2471 14.8955 12.1633 14.8799 12.0246C14.8691 11.9279 14.8604 11.8298 14.8373 11.7356C14.7919 11.5501 14.6933 11.3783 14.5373 11.2647C14.4637 11.2111 14.3802 11.172 14.2928 11.1467C14.1818 11.1146 14.0665 11.1234 13.9558 11.0963C13.8355 11.0668 13.7689 10.9694 13.7879 10.8566C13.805 10.7539 13.9049 10.6737 14.0172 10.6819C14.7187 10.7325 15.22 11.0952 15.2916 11.921C15.2967 11.9792 15.3026 12.0408 15.2897 12.0966C15.2674 12.1919 15.1968 12.2398 15.1279 12.2444C15.1968 12.2398 14.9765 12.2471 15.1279 12.2444Z" fill="white"/>
<path d="M20.6415 9.48811L20.6371 9.47028C20.4349 8.65285 19.8349 7.80203 19.0837 7.15466L18.068 8.05473C18.672 8.53593 19.1894 9.20255 19.3364 9.78337C19.7382 11.6242 19.7382 13.4902 19.3364 15.331C19.0956 16.2824 17.8608 17.4651 16.8798 17.6837C15.5954 17.9279 14.3009 18.0323 13.0076 17.9965C12.9819 17.9957 12.9571 18.0058 12.9393 18.0242C12.7557 18.2126 11.7351 19.2604 11.7351 19.2604L10.4543 20.575C10.3606 20.6726 10.1961 20.6063 10.1961 20.4714V17.7748C10.1961 17.7302 10.1643 17.6924 10.1205 17.6838C10.1202 17.6838 10.12 17.6837 10.1198 17.6837C9.5622 17.5595 8.92311 17.1237 8.43078 16.5962L7.42725 17.4855C8.05399 18.1673 8.86236 18.7185 9.65095 18.9436V20.5714C9.65095 21.1606 10.3689 21.45 10.7772 21.0248L12.4265 19.3105C12.7842 19.3304 13.142 19.3416 13.4999 19.3416C14.7158 19.3416 15.9323 19.2266 17.1398 18.9963L17.1566 18.9928C18.6501 18.6673 20.2763 17.1026 20.637 15.6443L20.6414 15.6265C21.0874 13.5898 21.0874 11.5247 20.6415 9.48811Z" fill="white"/>
<path d="M15.6341 16.5759C15.7652 16.5355 15.4833 16.5301 15.6341 16.5759V16.5759Z" fill="white"/>
<path d="M16.7652 14.8533C16.5672 14.679 16.3535 14.5294 16.139 14.3765C15.9203 14.2207 15.7004 14.0666 15.4735 13.9229C15.2467 13.7794 14.9776 13.7816 14.767 13.9538C14.5515 14.13 14.452 14.4673 14.1445 14.5032C13.9609 14.5246 13.8009 14.4474 13.6415 14.3811C13.0288 14.1262 12.5639 13.7364 12.2125 13.2442L11.4658 13.906C11.4912 13.9354 11.5154 13.9656 11.5412 13.9946C12.5496 15.1295 13.8226 15.8699 15.2058 16.4438C15.3393 16.4992 15.4831 16.53 15.6339 16.5757C15.4831 16.5298 15.7651 16.5353 15.6339 16.5757C15.7651 16.5353 15.9039 16.515 16.0203 16.4527C16.4322 16.2314 16.7176 15.8849 16.9138 15.4683C17.0211 15.2409 16.9555 15.021 16.7652 14.8533Z" fill="white"/>
<path d="M13.5097 8.72507C13.5078 8.72507 13.506 8.72488 13.504 8.72488C13.5022 8.72474 13.5046 8.72488 13.5097 8.72507Z" fill="white"/>
<path d="M13.5054 8.72363C13.5069 8.72363 13.5084 8.72379 13.5099 8.72379C13.6103 8.72738 15.2434 8.77236 13.5054 8.72363Z" fill="white"/>
<path d="M16.0991 9.7999L15.7808 10.0821C16.2811 10.5688 16.626 11.2139 16.7247 11.9238C16.7601 12.1792 16.7731 12.4377 16.7917 12.6952C16.8012 12.8253 16.8664 12.9466 17.0115 12.9449C17.1519 12.9432 17.2256 12.8196 17.2154 12.6895C17.1912 12.3801 17.172 12.0685 17.1177 11.7637C16.9783 10.9807 16.6151 10.3104 16.0991 9.7999Z" fill="white"/>
<path d="M16.2169 11.862C16.1257 11.2514 15.8725 10.7532 15.4517 10.3736L15.1343 10.6549C15.2984 10.8006 15.4405 10.9718 15.5498 11.1605C15.7431 11.4939 15.8264 11.8768 15.827 12.26C15.8271 12.3185 15.8299 12.3804 15.8487 12.4349C15.9122 12.6182 16.1875 12.5955 16.2355 12.4138C16.2488 12.3637 16.2504 12.3106 16.2534 12.2881C16.2504 12.3107 16.2461 12.164 16.2534 12.2881C16.2461 12.164 16.2417 12.0698 16.2345 11.9757C16.2317 11.9375 16.2226 11.8999 16.2169 11.862Z" fill="white"/>
<path d="M16.2532 12.2881C16.2465 12.164 16.2504 12.3106 16.2532 12.2881V12.2881Z" fill="white"/>
<path d="M15.1288 12.2438C15.1313 12.2437 15.1336 12.2425 15.1359 12.2422C15.1294 12.2422 15.1193 12.2424 15.1089 12.2428C15.1156 12.2429 15.1218 12.2439 15.1288 12.2438Z" fill="white"/>
<path d="M15.1281 12.2447C15.1213 12.2448 15.1153 12.2438 15.1087 12.2437C15.076 12.2445 15.0422 12.2461 15.1281 12.2447Z" fill="white"/>
<path d="M15.135 12.2422C15.1326 12.2425 15.1303 12.2437 15.1279 12.2438C15.1462 12.2427 15.1446 12.2422 15.135 12.2422Z" fill="white"/>
<path d="M14.8085 10.9437L14.4854 11.2301C14.5032 11.241 14.5206 11.2522 14.5376 11.2645C14.6935 11.3782 14.7921 11.55 14.8376 11.7355C14.8607 11.8296 14.8692 11.9276 14.8801 12.0244C14.895 12.157 14.9703 12.2384 15.1088 12.2432C15.1188 12.2429 15.1288 12.2427 15.135 12.2427C15.2017 12.2353 15.2685 12.1885 15.2899 12.0964C15.3028 12.0406 15.2969 11.979 15.2918 11.9207C15.2516 11.459 15.077 11.1422 14.8085 10.9437Z" fill="white"/>
</svg>
