<svg width="31" height="31" viewBox="0 0 31 31" fill="none" xmlns="http://www.w3.org/2000/svg">
<path d="M15.5 31C24.0604 31 31 24.0604 31 15.5C31 6.93959 24.0604 0 15.5 0C6.93959 0 0 6.93959 0 15.5C0 24.0604 6.93959 31 15.5 31Z" fill="#4D76A1"/>
<path fill-rule="evenodd" clip-rule="evenodd" d="M14.9143 22.2981H16.1309C16.1309 22.2981 16.4984 22.2578 16.686 22.0555C16.8587 21.8698 16.8531 21.5212 16.8531 21.5212C16.8531 21.5212 16.8294 19.8888 17.587 19.6484C18.3338 19.4116 19.2929 21.2261 20.3094 21.9237C21.0781 22.4517 21.6622 22.336 21.6622 22.336L24.3802 22.2981C24.3802 22.2981 25.802 22.2105 25.1278 21.0926C25.0726 21.0012 24.7352 20.2656 23.107 18.7543C21.4027 17.1724 21.631 17.4283 23.6839 14.6921C24.9342 13.0257 25.434 12.0083 25.2779 11.5726C25.1289 11.1576 24.2094 11.2673 24.2094 11.2673L21.1491 11.2864C21.1491 11.2864 20.9222 11.2554 20.754 11.356C20.5896 11.4546 20.4838 11.6845 20.4838 11.6845C20.4838 11.6845 19.9994 12.974 19.3534 14.0707C17.9907 16.3847 17.4458 16.5068 17.2231 16.3631C16.705 16.0283 16.8344 15.0178 16.8344 14.3C16.8344 12.0575 17.1745 11.1225 16.1721 10.8805C15.8394 10.8001 15.5946 10.747 14.7438 10.7385C13.6519 10.7271 12.7277 10.7418 12.2044 10.9982C11.8562 11.1687 11.5876 11.5486 11.7512 11.5704C11.9535 11.5975 12.4116 11.6939 12.6545 12.0246C12.9681 12.4513 12.957 13.4095 12.957 13.4095C12.957 13.4095 13.1372 16.0493 12.5362 16.3772C12.1237 16.6021 11.5578 16.1429 10.3429 14.0436C9.7204 12.9682 9.25041 11.7796 9.25041 11.7796C9.25041 11.7796 9.15978 11.5574 8.99814 11.4386C8.80197 11.2947 8.52788 11.2488 8.52788 11.2488L5.6198 11.2679C5.6198 11.2679 5.18324 11.28 5.02298 11.4698C4.88041 11.6387 5.01166 11.9879 5.01166 11.9879C5.01166 11.9879 7.28839 17.3145 9.86629 19.9987C12.2301 22.4598 14.9143 22.2981 14.9143 22.2981Z" fill="white"/>
</svg>
