<svg width="20" height="20" viewBox="0 0 20 20" fill="none" xmlns="http://www.w3.org/2000/svg">
<path fill-rule="evenodd" clip-rule="evenodd" d="M13.4506 0.077467C14.5126 -0.225982 15.6196 0.389003 15.923 1.45107C15.9741 1.62976 16 1.81468 16 2.00051V3.67478H18C19.1046 3.67478 20 4.57022 20 5.67478V17.6748C20 18.7794 19.1046 19.6748 18 19.6748H2C0.89543 19.6748 0 18.7794 0 17.6748H0.0267034C0.00895177 17.5672 0 17.4583 0 17.3491V5.42909C0 4.53613 0.591955 3.75135 1.45056 3.50604L13.4506 0.077467ZM8.14005 17.6748H18V9.67479H16V13.9205C16 14.8134 15.408 15.5982 14.5494 15.8435L8.14005 17.6748ZM18 5.67478V7.67479H16V5.67478H18ZM2 5.42906V17.349L14 13.9205V2.00049L2 5.42906ZM12 7.67479C12 8.22707 11.5523 8.67479 11 8.67479C10.4477 8.67479 10 8.22707 10 7.67479C10 7.1225 10.4477 6.67479 11 6.67479C11.5523 6.67479 12 7.1225 12 7.67479Z" fill="#FFDD55"/>
</svg>
