<svg width="25" height="25" viewBox="0 0 25 25" fill="none" xmlns="http://www.w3.org/2000/svg">
<path d="M0 25L1.72412 18.75C0.603467 16.8104 0 14.6552 0 12.4138C0 5.60347 5.60347 0 12.4569 0C19.3103 0 25 5.60347 25 12.4138C25 19.2241 19.3104 25 12.4569 25C10.3017 25 8.23276 24.3104 6.3793 23.2759L0 25Z" fill="white"/>
<path d="M6.72422 21.0344L7.11216 21.2499C8.70698 22.2413 10.5604 22.8448 12.5001 22.8448C18.1466 22.8448 22.8449 18.1465 22.8449 12.4137C22.8449 6.68095 18.1466 2.15512 12.457 2.15512C6.76733 2.15512 2.15527 6.72407 2.15527 12.4137C2.15527 14.3965 2.71563 16.3361 3.7501 17.9741L4.00874 18.362L3.01738 21.9827L6.72422 21.0344Z" fill="#55CD6C"/>
<path d="M9.13795 6.63803L8.319 6.59491C8.06036 6.59491 7.80176 6.68114 7.62935 6.85355C7.24141 7.19838 6.59488 7.84491 6.42247 8.70702C6.12076 10.0001 6.59488 11.5518 7.71558 13.1036C8.83629 14.6553 10.9915 17.1553 14.7845 18.2328C15.9914 18.5777 16.9397 18.3621 17.7156 17.888C18.319 17.5001 18.7069 16.8967 18.8363 16.2501L18.9656 15.6466C19.0087 15.4742 18.9225 15.2587 18.7501 15.1725L16.0345 13.9225C15.8621 13.8363 15.6466 13.8794 15.5173 14.0518L14.4397 15.4311C14.3535 15.5173 14.2242 15.5604 14.0949 15.5173C13.3621 15.2587 10.9052 14.2242 9.569 11.638C9.52589 11.5087 9.52589 11.3794 9.61212 11.2932L10.6466 10.1294C10.7328 10.0001 10.7759 9.82772 10.7328 9.69838L9.48282 6.89667C9.43965 6.76732 9.31036 6.63803 9.13795 6.63803Z" fill="#FEFEFE"/>
</svg>
